<svg width="9" height="5" viewBox="0 0 9 5" fill="none" xmlns="http://www.w3.org/2000/svg">
<path fill-rule="evenodd" clip-rule="evenodd" d="M0.131263 0.194243C0.163194 0.162231 0.201128 0.136833 0.24289 0.119504C0.284652 0.102174 0.329423 0.0932541 0.374638 0.0932541C0.419853 0.0932541 0.464624 0.102174 0.506386 0.119504C0.548148 0.136833 0.586082 0.162231 0.618013 0.194243L4.49964 4.07656L8.38126 0.194243C8.44581 0.129696 8.53335 0.0934343 8.62464 0.0934343C8.71592 0.0934343 8.80347 0.129696 8.86801 0.194243C8.93256 0.25879 8.96882 0.346335 8.96882 0.437618C8.96882 0.528902 8.93256 0.616446 8.86801 0.680994L4.74301 4.80599C4.71108 4.83801 4.67315 4.8634 4.63139 4.88073C4.58962 4.89806 4.54485 4.90698 4.49964 4.90698C4.45442 4.90698 4.40965 4.89806 4.36789 4.88073C4.32613 4.8634 4.28819 4.83801 4.25626 4.80599L0.131263 0.680994C0.0992507 0.649062 0.0738525 0.611129 0.0565231 0.569366C0.0391937 0.527604 0.0302734 0.482833 0.0302734 0.437618C0.0302734 0.392404 0.0391937 0.347633 0.0565231 0.305871C0.0738525 0.264108 0.0992507 0.226175 0.131263 0.194243Z" fill="#414141"/>
</svg>
